<mxfile host="app.diagrams.net" modified="2023-12-21T16:40:27.972Z" agent="Mozilla/5.0 (Windows NT 10.0; Win64; x64) AppleWebKit/537.36 (KHTML, like Gecko) Chrome/120.0.0.0 Safari/537.36" version="22.1.11" etag="bdg5IK9xM93XwXBbJnLO" type="github">
  <diagram name="PÃ¡gina-1" id="zgUsaR7_dWjTXPb6fPwR">
    <mxGraphModel>
      <root>
        <mxCell id="0" />
        <mxCell id="1" parent="0" />
      </root>
    </mxGraphModel>
  </diagram>
</mxfile>
